<svg width="67" height="250" viewBox="0 0 67 250" fill="none" xmlns="http://www.w3.org/2000/svg">
<path d="M63.7154 103.974H43.9258V242.501H63.7154V103.974Z" fill="white"/>
<path d="M43.9245 10.6802H32.6162V68.6365H43.9245V10.6802Z" fill="white"/>
<path d="M22.7139 0.426914C22.1986 0.818574 21.9165 1.77468 21.8017 3.51137C21.7441 4.38281 21.5657 5.2532 21.4074 5.44395C21.232 5.65529 21.0715 7.1812 20.9977 9.35561C20.8953 12.3713 20.9443 13.0602 21.2992 13.8083C21.4858 14.2015 21.5873 14.6934 21.6007 17.0627L19.9112 63.7513C20.0323 65.5572 19.6045 67.0497 18.7064 68.5992C17.9812 69.7737 16.8023 71.1981 14.5021 73.8487C5.30782 83.5461 0.831163 95.9811 0 109.106L0.0386365 240.158C0.477743 243.556 2.20812 248.857 4.93186 249.999H61.827C64.5508 248.856 66.2811 243.556 66.7202 240.158L66.7589 109.106C65.9277 95.9806 61.4508 83.5456 52.2568 73.8487C49.5718 70.7551 48.4146 69.3317 47.7235 68.0266C46.9498 66.8023 46.9104 65.4925 46.8602 64.1021L45.1607 17.0647C45.1741 14.6953 45.2756 14.2033 45.4622 13.8102C45.8171 13.0623 45.8661 12.3734 45.7637 9.35759C45.6899 7.18331 45.5294 5.65743 45.354 5.44593C45.1957 5.25519 45.0173 4.38478 44.9597 3.51335C44.8449 1.77674 44.5628 0.820727 44.0476 0.428893C36.9604 -0.117201 29.7983 -0.16816 22.7119 0.428893L22.7139 0.426914ZM40.5322 15.5442H41.769V60.0708H40.5322V15.5442ZM54.3849 111.524V240.404H52.9007V111.524H54.3849V111.524ZM59.5797 111.524V240.404H56.3638V111.524H59.5797V111.524Z" fill="#FFB563"/>
</svg>
